<svg width="1645" height="1076" viewBox="0 0 1645 1076" fill="none" xmlns="http://www.w3.org/2000/svg">
<path d="M1029.54 56.3636C1043.98 16.3793 1097.67 7.13026 1125.24 39.8766L1269.72 211.513C1287.6 232.75 1314.06 245.335 1342.21 246.004L1569.79 251.415C1613.24 252.447 1638.76 299.388 1615.38 335.073L1492.72 522.285C1485.21 533.728 1480.32 546.619 1478.39 560.077C1476.44 573.53 1477.5 587.239 1481.47 600.26L1546.43 813.173C1558.81 853.739 1521 892.048 1478.92 881.363L1258.61 825.436C1245.14 822.015 1231.08 821.467 1217.38 823.828C1203.68 826.184 1190.66 831.399 1179.2 839.115L991.765 965.292C955.957 989.39 907.017 966.03 904.445 923.772L890.962 701.992C889.293 674.543 875.471 649.175 853.101 632.481L672.291 497.549C637.829 471.831 645.378 419.191 685.846 403.701L897.816 322.563C924.028 312.53 944.484 291.863 953.849 265.932L1029.54 56.3636Z" fill="#FFAFF3"/>
<path d="M1069.41 1.20037C1043.74 5.62837 1020.27 22.299 1010.56 49.2227L934.879 258.959C927.501 279.407 911.406 295.688 890.746 303.605L678.826 384.814C624.446 405.652 613.93 478.811 660.289 513.444L841.05 648.471C849.753 654.967 856.922 663.222 862.065 672.679C867.208 682.131 870.206 692.559 870.853 703.248L884.325 925.203C887.782 982.146 955.688 1014.54 1003.81 982.121L1003.81 982.116L1191.21 855.837V855.832C1200.23 849.748 1210.49 845.636 1221.28 843.775C1232.08 841.915 1243.15 842.348 1253.76 845.047L1474.01 901.01C1530.56 915.384 1583.05 862.222 1566.38 807.551V807.556L1501.45 594.474C1498.32 584.213 1497.49 573.414 1499.01 562.805C1500.54 552.202 1504.39 542.046 1510.3 533.031V533.026L1632.95 345.658L1632.94 345.656C1664.4 297.603 1628.94 232.376 1570.56 230.987L1343.02 225.581C1320.84 225.054 1300.02 215.14 1285.94 198.395L1141.5 26.6241C1122.95 4.57589 1095.08 -3.23854 1069.4 1.18981M1076.31 39.5241C1087.98 37.5119 1100.72 41.4535 1109.74 52.1765L1254.18 223.943C1275.84 249.705 1307.93 264.978 1342.02 265.789L1569.55 271.196C1598.04 271.872 1613.61 300.601 1598.31 323.973L1475.67 511.342C1457.27 539.432 1452.3 574.002 1462.03 605.963L1526.97 819.039C1535.06 845.575 1511.94 869.09 1484.34 862.081L1264.09 806.113C1231.09 797.722 1195.95 803.785 1167.87 822.715L980.472 948.994C956.992 964.816 927.045 950.452 925.365 922.815L911.894 700.859C909.873 667.561 893.104 636.752 866.001 616.5L685.241 481.473C662.695 464.631 667.279 432.428 693.814 422.256L905.734 341.046C937.485 328.878 962.296 303.791 973.647 272.333V272.332L1049.33 62.5963C1054.05 49.5038 1064.64 41.5375 1076.31 39.5251" fill="#151515"/>
<path d="M1003.32 566.393C1025.27 562.603 1039.93 542.12 1036.06 520.641C1032.19 499.158 1011.26 484.819 989.308 488.607C967.358 492.395 952.701 512.88 956.571 534.359C960.44 555.837 981.371 570.183 1003.32 566.393Z" fill="#151515"/>
<path d="M1328.28 510.393C1350.22 506.608 1364.88 486.121 1361.01 464.641C1357.14 443.161 1336.21 428.818 1314.26 432.607C1292.31 436.395 1277.65 456.88 1281.52 478.36C1285.39 499.842 1306.32 514.183 1328.28 510.393Z" fill="#151515"/>
<path d="M1139.16 581.473C1136.17 582.598 1133.44 584.289 1131.11 586.445C1128.79 588.601 1126.92 591.186 1125.63 594.044C1124.33 596.909 1123.62 599.988 1123.54 603.114C1123.46 606.241 1124.02 609.355 1125.17 612.273C1128.19 619.878 1132.71 626.834 1138.47 632.742C1144.24 638.649 1151.15 643.384 1158.79 646.683L1158.8 646.689C1166.44 649.988 1174.67 651.786 1183.02 651.983H1183.03H1183.04C1191.39 652.174 1199.7 650.762 1207.49 647.826H1207.5C1215.29 644.89 1222.42 640.483 1228.47 634.856H1228.48V634.85C1234.53 629.228 1239.38 622.492 1242.76 615.042C1246.16 607.58 1248 599.535 1248.2 591.376C1248.35 585.064 1245.92 578.948 1241.46 574.374C1236.98 569.806 1230.84 567.156 1224.36 567.007C1221.15 566.93 1217.97 567.478 1214.98 568.603C1182.56 580.865 1163.63 572.217 1139.16 581.473Z" fill="#151515"/>
<path d="M113 775L567 609" stroke="#A6F0FC" stroke-width="36" stroke-linecap="round" stroke-linejoin="round"/>
<path d="M113 775L567 609" stroke="black" stroke-width="36" stroke-linecap="round" stroke-linejoin="round"/>
<path d="M230 1058L684 892" stroke="#A6F0FC" stroke-width="36" stroke-linecap="round" stroke-linejoin="round"/>
<path d="M230 1058L684 892" stroke="black" stroke-width="36" stroke-linecap="round" stroke-linejoin="round"/>
<path d="M18 975L757 705" stroke="#A6F0FC" stroke-width="36" stroke-linecap="round" stroke-linejoin="round"/>
<path d="M18 975L757 705" stroke="black" stroke-width="36" stroke-linecap="round" stroke-linejoin="round"/>
</svg>
